<svg viewBox="0 0 512 512" xmlns="http://www.w3.org/2000/svg"><path d="m0 0h512v512h-512z"/><path d="m256 23c-128.6 0-233 104.4-233 233s104.4 233 233 233c103.1 0 190.6-67.1 221.3-160h-19c-29.9 82.8-109.1 142-202.3 142-118.8 0-215-96.2-215-215s96.2-215 215-215c93.2 0 172.4 59.2 202.3 142h19c-30.7-92.88-118.2-160-221.3-160zm-9 50.22c-16 .77-31.4 3.58-46 8.17v277.61h46zm18 0v141.78h46v-133.61c-14.6-4.59-30-7.4-46-8.17zm-82 14.89c-16.8 7.3-32.3 17.09-46 28.79v2.1h46zm146 0v222.89h46v-194.1c-13.7-11.7-29.2-21.49-46-28.79zm-210 46.49c-28.63 32.3-46 74.8-46 121.4s17.37 89.1 46 121.4v-89c-9.7-7.5-16-19.3-16-32.4s6.3-24.9 16-32.4zm274 0v242.8c12.7-14.3 23.1-30.6 30.9-48.4h-12.9v-146h12.9c-7.8-17.8-18.2-34.1-30.9-48.4zm-256 2.4v78.6c2.3-.4 4.6-.6 7-.6 18.1 0 33.6 12 39 28.4v-106.4zm292 64v46h46v-46zm-285 32c-12.8 0-23 10.2-23 23s10.2 23 23 23 23-10.2 23-23-10.2-23-23-23zm121 0v205.8c16-.8 31.4-3.6 46-8.2v-197.6zm164 32v46h46v-46zm-246 3.6c-5.4 16.4-20.9 28.4-39 28.4-2.4 0-4.7-.2-7-.6v98.7c13.7 11.7 29.2 21.5 46 28.8zm146 60.4v94.9c16.8-7.3 32.3-17.1 46-28.8v-66.1zm-128 48v53.6c14.6 4.6 30 7.4 46 8.2v-61.8z" fill="#fff"/></svg>